Normalized EMG Linear Envelopes
nRows=264
nColumns=4

endheader
time	 med_gas_r	  soleus_r	 tib_ant_r	
3.49272	  0.020160	  0.030094	  0.016246	
3.52598	  0.020208	  0.030009	  0.016378	
3.55925	  0.020305	  0.029827	  0.016504	
3.59251	  0.020470	  0.029569	  0.016668	
3.62578	  0.020717	  0.029331	  0.016857	
3.65904	  0.021047	  0.029207	  0.017023	
3.6923	  0.021462	  0.029212	  0.017126	
3.72557	  0.021956	  0.029321	  0.017170	
3.75883	  0.022481	  0.029554	  0.017179	
3.7921	  0.022990	  0.029804	  0.017142	
3.82536	  0.023411	  0.029969	  0.017074	
3.85862	  0.023673	  0.030025	  0.016991	
3.89189	  0.023719	  0.029937	  0.016882	
3.92515	  0.023539	  0.029719	  0.016728	
3.95842	  0.023169	  0.029372	  0.016519	
3.99168	  0.022627	  0.028911	  0.016261	
4.02494	  0.021908	  0.028414	  0.016017	
4.05821	  0.021000	  0.027967	  0.015831	
4.09147	  0.019933	  0.027600	  0.015702	
4.12474	  0.018720	  0.027335	  0.015601	
4.158	  0.017469	  0.027179	  0.015514	
4.19126	  0.016439	  0.027132	  0.015447	
4.22453	  0.015987	  0.027264	  0.015411	
4.25779	  0.016628	  0.027694	  0.015442	
4.29106	  0.019038	  0.028550	  0.015584	
4.32432	  0.024026	  0.029970	  0.015829	
4.35758	  0.032483	  0.032046	  0.016126	
4.39085	  0.045262	  0.034857	  0.016463	
4.42411	  0.062929	  0.038412	  0.016874	
4.45738	  0.085421	  0.042585	  0.017450	
4.49064	  0.111543	  0.046975	  0.018229	
4.5239	  0.138793	  0.050951	  0.019156	
4.55717	  0.162846	  0.053784	  0.020085	
4.59043	  0.178107	  0.055088	  0.020838	
4.6237	  0.182023	  0.054939	  0.021257	
4.65696	  0.175922	  0.053684	  0.021263	
4.69022	  0.164981	  0.051996	  0.021040	
4.72349	  0.154175	  0.050355	  0.020797	
4.75675	  0.146083	  0.048961	  0.020648	
4.79002	  0.140976	  0.047861	  0.020608	
4.82328	  0.138237	  0.047043	  0.020591	
4.85654	  0.136962	  0.046589	  0.020545	
4.88981	  0.135362	  0.046617	  0.020431	
4.92307	  0.132541	  0.047191	  0.020264	
4.95634	  0.129292	  0.048153	  0.020091	
4.9896	  0.126776	  0.049191	  0.019925	
5.02286	  0.125581	  0.050047	  0.019795	
5.05613	  0.125349	  0.050558	  0.019750	
5.08939	  0.124609	  0.050533	  0.019789	
5.12266	  0.123346	  0.050320	  0.019935	
5.15592	  0.122374	  0.050244	  0.020195	
5.18918	  0.121971	  0.050499	  0.020505	
5.22245	  0.121558	  0.051242	  0.020771	
5.25571	  0.120631	  0.052281	  0.020886	
5.28898	  0.119810	  0.053172	  0.020802	
5.32224	  0.119453	  0.053809	  0.020525	
5.3555	  0.119790	  0.054536	  0.020076	
5.38877	  0.121084	  0.055562	  0.019503	
5.42203	  0.122144	  0.056585	  0.018774	
5.4553	  0.121301	  0.057023	  0.017775	
5.48856	  0.117282	  0.056135	  0.016421	
5.52182	  0.111565	  0.054361	  0.014880	
5.55509	  0.106159	  0.052470	  0.013388	
5.58835	  0.101251	  0.050727	  0.012222	
5.62162	  0.096224	  0.048938	  0.011791	
5.65488	  0.090700	  0.046924	  0.012688	
5.68814	  0.083536	  0.044450	  0.015660	
5.72141	  0.074042	  0.041599	  0.021696	
5.75467	  0.063583	  0.038965	  0.031964	
5.78794	  0.054034	  0.037037	  0.047417	
5.8212	  0.046597	  0.036112	  0.068740	
5.85446	  0.041746	  0.036307	  0.096558	
5.88773	  0.039340	  0.037531	  0.130489	
5.92099	  0.038680	  0.039484	  0.168364	
5.95426	  0.038823	  0.041786	  0.205976	
5.98752	  0.039636	  0.043934	  0.237434	
6.02078	  0.041348	  0.045377	  0.256189	
6.05405	  0.044071	  0.046127	  0.263307	
6.08731	  0.047523	  0.046428	  0.263136	
6.12058	  0.050912	  0.046369	  0.260313	
6.15384	  0.053785	  0.046137	  0.256986	
6.1871	  0.056754	  0.045859	  0.252902	
6.22037	  0.060241	  0.045615	  0.246542	
6.25363	  0.063842	  0.045532	  0.239743	
6.2869	  0.066351	  0.045508	  0.235505	
6.32016	  0.067304	  0.045526	  0.235154	
6.35342	  0.067375	  0.045705	  0.237590	
6.38669	  0.067295	  0.046095	  0.241764	
6.41995	  0.067081	  0.046703	  0.247559	
6.45322	  0.066289	  0.047394	  0.253399	
6.48648	  0.065404	  0.048005	  0.256319	
6.51974	  0.065008	  0.048639	  0.257045	
6.55301	  0.065902	  0.049366	  0.259074	
6.58627	  0.068378	  0.050142	  0.264492	
6.61954	  0.072096	  0.051019	  0.272978	
6.6528	  0.076891	  0.052236	  0.282666	
6.68606	  0.082624	  0.053941	  0.290377	
6.71933	  0.088401	  0.055981	  0.296214	
6.75259	  0.093542	  0.058290	  0.300811	
6.78586	  0.098353	  0.060949	  0.304713	
6.81912	  0.103390	  0.063820	  0.306354	
6.85238	  0.109053	  0.066549	  0.305060	
6.88565	  0.115145	  0.068591	  0.302306	
6.91891	  0.119707	  0.069208	  0.301296	
6.95218	  0.120678	  0.068094	  0.303717	
6.98544	  0.118602	  0.066031	  0.308135	
7.0187	  0.115606	  0.063813	  0.312029	
7.05197	  0.112994	  0.061776	  0.314237	
7.08523	  0.110290	  0.059870	  0.314571	
7.1185	  0.107050	  0.058075	  0.313406	
7.15176	  0.103545	  0.056391	  0.313100	
7.18502	  0.099963	  0.054867	  0.314575	
7.21829	  0.096362	  0.053740	  0.318960	
7.25155	  0.093133	  0.053163	  0.325362	
7.28482	  0.090575	  0.053139	  0.332298	
7.31808	  0.089115	  0.053671	  0.340123	
7.35134	  0.088470	  0.054518	  0.347093	
7.38461	  0.088362	  0.055397	  0.351440	
7.41787	  0.088835	  0.056079	  0.351745	
7.45114	  0.089884	  0.056455	  0.349478	
7.4844	  0.091305	  0.056571	  0.346059	
7.51766	  0.092664	  0.056639	  0.342236	
7.55093	  0.094159	  0.056880	  0.340126	
7.58419	  0.095431	  0.057391	  0.341477	
7.61746	  0.095839	  0.058039	  0.346142	
7.65072	  0.095645	  0.058705	  0.353227	
7.68398	  0.095270	  0.059265	  0.359816	
7.71725	  0.095237	  0.059790	  0.363729	
7.75051	  0.095961	  0.060544	  0.364940	
7.78378	  0.097569	  0.061673	  0.365210	
7.81704	  0.099928	  0.063065	  0.364934	
7.8503	  0.102730	  0.064331	  0.364015	
7.88357	  0.105661	  0.065200	  0.363285	
7.91683	  0.108586	  0.065396	  0.362844	
7.9501	  0.110948	  0.065075	  0.363204	
7.98336	  0.112738	  0.064635	  0.365682	
8.01662	  0.114027	  0.064138	  0.370560	
8.04989	  0.115647	  0.063783	  0.377354	
8.08315	  0.118227	  0.064030	  0.383653	
8.11642	  0.121399	  0.064980	  0.389122	
8.14968	  0.124308	  0.066269	  0.395591	
8.18294	  0.125777	  0.067202	  0.404467	
8.21621	  0.124595	  0.067418	  0.416041	
8.24947	  0.121081	  0.067183	  0.430354	
8.28274	  0.116685	  0.066858	  0.446631	
8.316	  0.112588	  0.066651	  0.460968	
8.34926	  0.110383	  0.066657	  0.471251	
8.38253	  0.110700	  0.067153	  0.478337	
8.41579	  0.112709	  0.067969	  0.482323	
8.44906	  0.114724	  0.068758	  0.484300	
8.48232	  0.115901	  0.069302	  0.485204	
8.51558	  0.117241	  0.069505	  0.486308	
8.54885	  0.119035	  0.069493	  0.488447	
8.58211	  0.121008	  0.069247	  0.492635	
8.61538	  0.123193	  0.068761	  0.498302	
8.64864	  0.126043	  0.068048	  0.502337	
8.6819	  0.128865	  0.067294	  0.502637	
8.71517	  0.130790	  0.066729	  0.500513	
8.74843	  0.131737	  0.066501	  0.496154	
8.7817	  0.132055	  0.066675	  0.491784	
8.81496	  0.132101	  0.067146	  0.489710	
8.84822	  0.131890	  0.067830	  0.490861	
8.88149	  0.131440	  0.068861	  0.495333	
8.91475	  0.129615	  0.070367	  0.500814	
8.94802	  0.126373	  0.072397	  0.504187	
8.98128	  0.122938	  0.074734	  0.506965	
9.01454	  0.120152	  0.077041	  0.508956	
9.04781	  0.118311	  0.079394	  0.510811	
9.08107	  0.117602	  0.081731	  0.510960	
9.11434	  0.116941	  0.083633	  0.509121	
9.1476	  0.115671	  0.084664	  0.505523	
9.18086	  0.113907	  0.084959	  0.501147	
9.21413	  0.112056	  0.084738	  0.498769	
9.24739	  0.110831	  0.084166	  0.499241	
9.28066	  0.110526	  0.083394	  0.503537	
9.31392	  0.110626	  0.082503	  0.509180	
9.34718	  0.111138	  0.081489	  0.512974	
9.38045	  0.113194	  0.080389	  0.514165	
9.41371	  0.116996	  0.079048	  0.514931	
9.44698	  0.121536	  0.077241	  0.517445	
9.48024	  0.125081	  0.074903	  0.521911	
9.5135	  0.127551	  0.072168	  0.530115	
9.54677	  0.130411	  0.069295	  0.542486	
9.58003	  0.133722	  0.066552	  0.556598	
9.6133	  0.136594	  0.064201	  0.570607	
9.64656	  0.138403	  0.062656	  0.581879	
9.67982	  0.139210	  0.062109	  0.587449	
9.71309	  0.139146	  0.062494	  0.587363	
9.74635	  0.139202	  0.063497	  0.583961	
9.77962	  0.140112	  0.064995	  0.582267	
9.81288	  0.141633	  0.066976	  0.582923	
9.84614	  0.141908	  0.069342	  0.587826	
9.87941	  0.139769	  0.071940	  0.599676	
9.91267	  0.136334	  0.074674	  0.617214	
9.94594	  0.132626	  0.077571	  0.638068	
9.9792	  0.128986	  0.080430	  0.659112	
10.0125	  0.125127	  0.082779	  0.680126	
10.0457	  0.120762	  0.084160	  0.697230	
10.079	  0.116282	  0.084357	  0.711199	
10.1123	  0.112933	  0.083803	  0.721921	
10.1455	  0.111754	  0.082735	  0.725501	
10.1788	  0.112613	  0.081350	  0.719037	
10.212	  0.115005	  0.080056	  0.704809	
10.2453	  0.117907	  0.078771	  0.688171	
10.2786	  0.120887	  0.077176	  0.672701	
10.3118	  0.124305	  0.075106	  0.663162	
10.3451	  0.127525	  0.072548	  0.661004	
10.3784	  0.130010	  0.070115	  0.664420	
10.4116	  0.131466	  0.068371	  0.672143	
10.4449	  0.131080	  0.067662	  0.682834	
10.4782	  0.128961	  0.068209	  0.693704	
10.5114	  0.126899	  0.070415	  0.701419	
10.5447	  0.126929	  0.074348	  0.705840	
10.578	  0.129265	  0.079485	  0.706149	
10.6112	  0.132033	  0.084728	  0.702125	
10.6445	  0.132946	  0.089099	  0.693674	
10.6777	  0.132650	  0.092406	  0.679836	
10.711	  0.132387	  0.094482	  0.662155	
10.7443	  0.131858	  0.095349	  0.644244	
10.7775	  0.130137	  0.095313	  0.631049	
10.8108	  0.126687	  0.094582	  0.624459	
10.8441	  0.121291	  0.093428	  0.623156	
10.8773	  0.115707	  0.092050	  0.623803	
10.9106	  0.110864	  0.090362	  0.622577	
10.9439	  0.107289	  0.088464	  0.619540	
10.9771	  0.105304	  0.086679	  0.615256	
11.0104	  0.103917	  0.085219	  0.610825	
11.0436	  0.103288	  0.084316	  0.609721	
11.0769	  0.104255	  0.083897	  0.613648	
11.1102	  0.106933	  0.083967	  0.621709	
11.1434	  0.111050	  0.084621	  0.631496	
11.1767	  0.115726	  0.085869	  0.641639	
11.21	  0.119538	  0.087638	  0.654393	
11.2432	  0.120543	  0.089753	  0.669405	
11.2765	  0.118475	  0.092130	  0.685308	
11.3098	  0.115609	  0.094550	  0.700016	
11.343	  0.113399	  0.096398	  0.711251	
11.3763	  0.112167	  0.097017	  0.720067	
11.4096	  0.111476	  0.095982	  0.724975	
11.4428	  0.110396	  0.093372	  0.722833	
11.4761	  0.108165	  0.089648	  0.714763	
11.5093	  0.105505	  0.085332	  0.701795	
11.5426	  0.103511	  0.081051	  0.685720	
11.5759	  0.103001	  0.077286	  0.668674	
11.6091	  0.103770	  0.074352	  0.653423	
11.6424	  0.104948	  0.072498	  0.646071	
11.6757	  0.105836	  0.072346	  0.650417	
11.7089	  0.105973	  0.074648	  0.666335	
11.7422	  0.105508	  0.079499	  0.690628	
11.7755	  0.105157	  0.086353	  0.719913	
11.8087	  0.105724	  0.094479	  0.751473	
11.842	  0.107842	  0.102756	  0.780498	
11.8752	  0.111182	  0.110620	  0.805975	
11.9085	  0.114047	  0.117377	  0.826945	
11.9418	  0.114879	  0.122178	  0.840323	
11.975	  0.114035	  0.124931	  0.847037	
12.0083	  0.112565	  0.125643	  0.844971	
12.0416	  0.110795	  0.124438	  0.836044	
12.0748	  0.108474	  0.121703	  0.821821	
12.1081	  0.105928	  0.117321	  0.799611	
12.1414	  0.104320	  0.111923	  0.770041	
12.1746	  0.104496	  0.106327	  0.738447	
12.2079	  0.106081	  0.100903	  0.708217	
12.2412	  0.108212	  0.096106	  0.682578	
